<svg width="508.905" height="113.201" viewBox="0 0 508.905 113.201" xmlns="http://www.w3.org/2000/svg"><g id="svgGroup" stroke-linecap="round" fill-rule="evenodd" font-size="9pt" stroke="#ffffff" stroke-width="0.25mm" fill="#ffffff" style="stroke:#ffffff;stroke-width:0.25mm;fill:#ffffff"><path d="M 406.7 47.9 L 407.3 47.9 A 6.217 6.217 0 0 1 408.499 47.995 Q 409.031 48.103 409.21 48.334 A 0.424 0.424 0 0 1 409.3 48.6 A 0.796 0.796 0 0 1 408.836 49.209 Q 408.48 49.435 407.852 49.648 A 12.331 12.331 0 0 1 407 49.9 A 12.364 12.364 0 0 1 405.622 50.167 Q 404.197 50.374 401.95 50.5 Q 398.4 50.7 394.6 50.7 Q 392.3 50.7 390.2 50.6 A 52.069 52.069 0 0 1 387.81 50.436 A 31.615 31.615 0 0 1 386.6 50.3 Q 384.5 56 381.8 62.1 Q 379.1 68.2 375.25 73.95 Q 371.4 79.7 366.05 84.35 A 38.703 38.703 0 0 1 357.772 89.822 A 45.287 45.287 0 0 1 353.4 91.7 A 40.323 40.323 0 0 1 347.073 93.448 Q 342.16 94.4 336.4 94.4 A 44.505 44.505 0 0 1 329.469 93.878 Q 323.902 93.001 319.2 90.65 A 31.553 31.553 0 0 1 312.883 86.519 A 28.06 28.06 0 0 1 307.45 80.35 A 26.283 26.283 0 0 1 303.267 67.548 A 31.211 31.211 0 0 1 303.2 65.5 A 32.77 32.77 0 0 1 304.13 57.87 A 39.02 39.02 0 0 1 305 54.8 Q 306 51.9 307.9 49.7 A 20.757 20.757 0 0 1 311.116 46.656 A 16.944 16.944 0 0 1 311.9 46.1 Q 314 44.7 315.5 44.3 A 16.029 16.029 0 0 1 316.482 44.058 A 2.378 2.378 0 0 1 316.9 44 A 0.331 0.331 0 0 1 317.137 44.062 Q 317.308 44.242 316.45 44.95 A 26.652 26.652 0 0 1 314.609 46.327 A 41.714 41.714 0 0 1 313.6 47 A 20.188 20.188 0 0 0 311.823 48.387 Q 310.607 49.438 309.2 50.9 Q 306.7 53.5 305.8 58.6 Q 305.6 59.8 305.5 61 Q 305.4 62.2 305.4 63.3 A 24.638 24.638 0 0 0 306.048 69.053 A 20.286 20.286 0 0 0 308.35 74.75 Q 311.3 79.7 316 83 Q 320.7 86.3 326.25 88 A 39.681 39.681 0 0 0 332.352 89.375 A 32.69 32.69 0 0 0 336.9 89.7 A 37.503 37.503 0 0 0 345.633 88.704 A 34.131 34.131 0 0 0 351.9 86.55 A 45.266 45.266 0 0 0 363.279 79.075 A 49.989 49.989 0 0 0 364.55 77.9 A 67.428 67.428 0 0 0 372.375 68.932 A 75.085 75.085 0 0 0 374.9 65.25 Q 379.5 58.1 383 50.1 Q 382.2 50.1 380.7 50.05 A 97.999 97.999 0 0 0 377.624 50.001 A 127.658 127.658 0 0 0 377.4 50 Q 374.7 50 371.55 50.35 Q 368.4 50.7 365.65 51.85 Q 362.9 53 361.2 55.4 A 2.135 2.135 0 0 1 360.389 56.045 A 0.825 0.825 0 0 1 360.1 56.1 Q 359.7 56.1 359.5 55.6 Q 359.3 55.1 359.6 54.5 Q 362 49.2 366.2 47.3 Q 370.4 45.4 375.6 45.4 Q 377.8 45.4 380.05 45.65 Q 382.3 45.9 384.5 46.3 Q 386.3 42 388.5 37.7 A 225.768 225.768 0 0 1 391.211 32.56 A 186.442 186.442 0 0 1 392.8 29.7 Q 394.9 26 396.6 23.45 Q 398.259 20.962 398.966 20.14 A 6.044 6.044 0 0 1 399 20.1 Q 392.6 16.9 385.8 14.2 Q 379 11.5 371.6 10.5 Q 370.1 10.3 368.6 10.2 Q 367.1 10.1 365.7 10.1 A 36.012 36.012 0 0 0 359.867 10.554 A 27.983 27.983 0 0 0 353.9 12.2 A 32.774 32.774 0 0 0 348.827 14.756 A 26.307 26.307 0 0 0 345.1 17.55 Q 341.5 20.8 339.6 24.45 A 18.396 18.396 0 0 0 338.205 27.881 A 12.44 12.44 0 0 0 337.7 31.3 A 8.718 8.718 0 0 0 338.113 34.087 A 5.789 5.789 0 0 0 340.7 37.3 Q 342.5 38.4 344.35 38.9 Q 346.2 39.4 347.9 39.4 A 15.165 15.165 0 0 0 353.613 38.344 A 13.894 13.894 0 0 0 354.8 37.8 A 22.01 22.01 0 0 0 357.817 35.946 A 14.823 14.823 0 0 0 359.75 34.25 A 13.562 13.562 0 0 0 360.869 32.934 Q 361.323 32.31 361.495 31.831 A 1.584 1.584 0 0 0 361.6 31.3 Q 361.6 30.3 362.2 29.55 Q 362.8 28.8 363.2 28.8 Q 363.6 28.8 363.6 29.5 A 3.783 3.783 0 0 1 363.432 30.475 A 9.378 9.378 0 0 1 363.3 30.9 Q 361.8 36.1 357.25 38.85 A 18.767 18.767 0 0 1 350.791 41.33 A 17.657 17.657 0 0 1 347.7 41.6 Q 345.6 41.6 343.55 41.1 Q 341.5 40.6 339.7 39.6 A 13.463 13.463 0 0 1 336.204 36.775 A 11.318 11.318 0 0 1 334.8 34.75 Q 333.2 31.8 333.2 28.4 A 17.01 17.01 0 0 1 334.103 23.047 A 22.4 22.4 0 0 1 335.2 20.35 A 24.331 24.331 0 0 1 339.393 14.293 A 29.042 29.042 0 0 1 340.95 12.75 A 28.179 28.179 0 0 1 346.99 8.541 A 34.101 34.101 0 0 1 350 7.15 Q 355.3 5 362 5 Q 367.1 5 373.4 6.7 A 99.971 99.971 0 0 1 381.852 9.334 A 85.161 85.161 0 0 1 388.7 12.15 A 148.677 148.677 0 0 1 392.841 14.147 Q 397.138 16.307 400.3 18.3 Q 401 17.5 402.6 16.2 Q 404.2 14.9 406.7 14.9 A 8.306 8.306 0 0 1 408.505 15.13 A 13.261 13.261 0 0 1 408.8 15.2 Q 409.7 15.5 410.15 16.2 Q 410.6 16.9 410.6 17.6 A 1.022 1.022 0 0 1 410.369 18.371 A 0.525 0.525 0 0 1 410 18.5 A 1.075 1.075 0 0 1 409.394 18.191 A 5.711 5.711 0 0 1 408.8 17.6 Q 408.1 17.3 407.3 17.3 Q 406 17.3 404.8 18 Q 403.6 18.7 402.7 19.5 A 48.082 48.082 0 0 0 404.64 20.41 Q 405.728 20.894 407.064 21.442 A 125.803 125.803 0 0 0 407.45 21.6 Q 410.4 22.8 414 24 Q 417.6 25.2 421.25 25.95 A 37.395 37.395 0 0 0 424.532 26.485 A 111.34 111.34 0 0 1 424.7 26.2 A 25.535 25.535 0 0 1 426.761 23.185 Q 428.149 21.455 429.65 20.35 Q 431.956 18.654 433.77 18.433 A 4.396 4.396 0 0 1 434.3 18.4 Q 435.9 18.4 436.85 19.55 Q 437.8 20.7 437.8 23 A 13.143 13.143 0 0 1 437.585 25.235 A 22.098 22.098 0 0 1 437.25 26.8 A 23.307 23.307 0 0 1 436.394 29.465 A 36.943 36.943 0 0 1 435.4 31.8 A 126.435 126.435 0 0 1 430.498 41.55 A 140.973 140.973 0 0 1 427.05 47.4 A 66.542 66.542 0 0 1 420.392 56.31 A 76.565 76.565 0 0 1 414.8 62 Q 414.4 63.3 413.75 65.05 Q 413.1 66.8 412.6 68.6 A 28.238 28.238 0 0 0 412.132 71.243 A 16.047 16.047 0 0 0 412 73.2 A 11.088 11.088 0 0 0 412.231 75.578 Q 412.537 76.966 413.25 77.85 Q 414.5 79.4 416.3 79.4 A 5.665 5.665 0 0 0 418.785 78.767 A 9.196 9.196 0 0 0 419.7 78.25 A 11.482 11.482 0 0 0 422.081 76.173 A 16.753 16.753 0 0 0 423.1 74.9 Q 425.5 71.4 427.45 67.75 Q 428.668 65.472 429.515 63.836 A 139.08 139.08 0 0 0 429.936 63.017 A 35.791 35.791 0 0 1 435 54.7 A 31.947 31.947 0 0 1 439.017 50.562 A 26.302 26.302 0 0 1 441.7 48.55 A 15.904 15.904 0 0 1 444.977 46.883 A 10.915 10.915 0 0 1 448.7 46.2 A 8.545 8.545 0 0 1 451.458 46.613 A 5.655 5.655 0 0 1 454.3 48.7 A 9.498 9.498 0 0 1 455.933 52.805 A 13.797 13.797 0 0 1 456.1 55 A 22.004 22.004 0 0 1 455.062 61.568 A 27.391 27.391 0 0 1 454 64.4 Q 452.8 67.1 450.6 70.35 Q 448.4 73.6 445.6 76.3 Q 446.2 77.4 447.3 78.15 A 4.489 4.489 0 0 0 449.295 78.841 A 8.059 8.059 0 0 0 450.3 78.9 A 6.162 6.162 0 0 0 453.967 77.63 A 9.365 9.365 0 0 0 454.85 76.9 A 23.261 23.261 0 0 0 458.055 73.173 A 28.899 28.899 0 0 0 458.8 72.05 Q 460.6 69.2 462 66.3 A 561.753 561.753 0 0 1 463.203 63.823 Q 463.745 62.715 464.179 61.844 A 192.051 192.051 0 0 1 464.3 61.6 A 1.034 1.034 0 0 1 464.377 61.463 A 33.42 33.42 0 0 1 464.405 61.404 Q 464.675 60.85 465.1 60 Q 466 58.1 467.35 55.5 Q 468.7 52.9 469.75 50.9 L 470.8 48.9 A 3.878 3.878 0 0 1 474.516 46.701 A 6.535 6.535 0 0 1 474.6 46.7 L 480.8 46.7 Q 479.1 48 477.75 49.55 Q 476.46 51.031 474.577 54.84 A 75.069 75.069 0 0 0 474.4 55.2 L 473.7 56.6 L 471.95 60.1 Q 470.9 62.2 469.85 64.4 Q 468.8 66.6 468.1 68.2 A 28.084 28.084 0 0 0 466.882 71.332 A 20.529 20.529 0 0 0 466.6 72.3 A 15.645 15.645 0 0 0 466.154 74.628 A 9.342 9.342 0 0 0 466.1 75.6 A 6.801 6.801 0 0 0 466.29 77.322 Q 466.544 78.28 467.137 78.722 A 2.056 2.056 0 0 0 468.4 79.1 Q 470 79.1 472 77.1 A 22.787 22.787 0 0 0 474.037 74.846 Q 475.031 73.6 476.052 72.045 A 50.525 50.525 0 0 0 476.75 70.95 Q 479.2 67 481.5 62.6 Q 483.8 58.2 485.6 54.45 Q 487.311 50.887 488.208 49.084 A 130.487 130.487 0 0 1 488.3 48.9 A 3.74 3.74 0 0 1 489.65 47.25 A 3.617 3.617 0 0 1 491.173 46.754 A 7.444 7.444 0 0 1 492.1 46.7 L 498.2 46.7 Q 497.6 47.3 496.45 48 A 5.587 5.587 0 0 0 495.067 49.262 A 11.138 11.138 0 0 0 494.2 50.5 A 154.202 154.202 0 0 0 492.269 53.903 A 117.621 117.621 0 0 0 491.7 54.95 Q 490.6 57 488.7 61.1 Q 488.425 61.719 487.796 63.141 A 6625.889 6625.889 0 0 0 487.15 64.6 A 55.632 55.632 0 0 0 485.51 68.782 A 68.153 68.153 0 0 0 485 70.3 A 21.994 21.994 0 0 0 484.192 73.598 A 14.736 14.736 0 0 0 484 75.9 Q 484 77.5 484.7 78.5 Q 485.4 79.5 487 79.5 A 7.01 7.01 0 0 0 490.937 78.233 A 10.826 10.826 0 0 0 492.35 77.1 Q 494.9 74.7 497.2 70.7 A 60.111 60.111 0 0 0 500.578 63.81 A 68.716 68.716 0 0 0 501.3 62 Q 500.1 59 500.1 55.5 A 16.31 16.31 0 0 1 500.287 52.91 A 10.313 10.313 0 0 1 500.5 51.9 Q 501.7 48 503.7 46.3 Q 505.7 44.6 507.2 44.6 A 1.738 1.738 0 0 1 508.469 45.019 Q 508.897 45.44 508.9 46.287 A 3.373 3.373 0 0 1 508.9 46.3 A 2.897 2.897 0 0 1 508.732 47.125 A 8.351 8.351 0 0 1 508.6 47.5 A 0.305 0.305 0 0 0 508.4 47.897 A 1.734 1.734 0 0 0 508.4 47.9 L 506.6 53.9 Q 505.4 57.9 503.5 62.6 Q 501.6 67.3 499.05 71.6 A 32.329 32.329 0 0 1 495.999 75.936 A 25.34 25.34 0 0 1 493.3 78.7 Q 490.1 81.5 486.1 81.5 Q 485.5 81.5 485.05 81.45 Q 484.6 81.4 483.9 81.3 Q 481.4 80.8 480.45 78.55 Q 479.5 76.3 479.5 73.7 Q 479.5 72.1 479.75 70.55 Q 480 69 480.4 67.8 Q 479.5 69.4 478.1 71.65 Q 476.7 73.9 474.9 76.1 A 22.598 22.598 0 0 1 471.659 79.365 A 18.8 18.8 0 0 1 471.1 79.8 A 7.398 7.398 0 0 1 468.303 81.154 A 5.877 5.877 0 0 1 467 81.3 Q 464.9 81.3 463.1 80.1 Q 461.3 78.9 460.8 76.7 Q 460.7 76.2 460.65 75.75 Q 460.6 75.3 460.6 74.9 A 10.985 10.985 0 0 1 461.008 71.976 A 66.366 66.366 0 0 1 460.4 72.95 A 23.688 23.688 0 0 1 456.451 77.726 A 21.046 21.046 0 0 1 455.8 78.3 Q 453.2 80.5 450 80.5 A 9.715 9.715 0 0 1 447.093 80.096 A 7.091 7.091 0 0 1 446.2 79.75 A 8.202 8.202 0 0 1 443.695 78.003 A 6.552 6.552 0 0 1 443.6 77.9 Q 441.5 79.5 439.4 80.4 Q 437.3 81.3 435.2 81.3 Q 431.4 81.3 429.6 78.75 A 9.894 9.894 0 0 1 427.899 74.172 A 13.689 13.689 0 0 1 427.8 72.5 A 21.641 21.641 0 0 1 427.851 71.131 A 42.589 42.589 0 0 1 426.477 73.363 A 49.351 49.351 0 0 1 425.95 74.15 Q 423.8 77.3 420.85 79.45 Q 417.9 81.6 414.1 81.6 Q 411.003 81.6 409.374 80.376 A 4.17 4.17 0 0 1 408.4 79.35 A 9.138 9.138 0 0 1 406.924 74.774 A 12.176 12.176 0 0 1 406.9 74 A 25.452 25.452 0 0 1 407.665 67.93 A 29.793 29.793 0 0 1 407.8 67.4 A 220.531 220.531 0 0 1 408.625 64.365 Q 409.013 62.979 409.355 61.85 A 91.595 91.595 0 0 1 409.4 61.7 Q 411 56.1 413.45 49.75 Q 415.9 43.4 418.85 37.25 A 166.432 166.432 0 0 1 421.605 31.759 A 129.404 129.404 0 0 1 422.745 29.635 A 60.933 60.933 0 0 1 417.185 28.225 A 52.92 52.92 0 0 1 413.9 27.1 Q 410.072 25.646 407.211 24.308 A 57.279 57.279 0 0 1 405.55 23.5 Q 402.789 22.099 401.624 21.581 A 12.435 12.435 0 0 0 401.2 21.4 A 39.035 39.035 0 0 0 397.131 26.918 A 46.811 46.811 0 0 0 395.5 29.8 A 101.021 101.021 0 0 0 391.744 37.829 A 91.198 91.198 0 0 0 391.15 39.3 A 231.376 231.376 0 0 1 389.812 42.628 Q 388.738 45.238 387.8 47.3 A 72.464 72.464 0 0 0 392.323 47.732 A 91.376 91.376 0 0 0 394.55 47.85 Q 398.2 48 401.4 48 Q 403 48 404.35 47.95 Q 405.7 47.9 406.7 47.9 Z M 149.5 81.7 Q 145.8 81.7 142.85 79.3 A 7.7 7.7 0 0 1 140.233 75.01 A 12.695 12.695 0 0 1 139.9 72 Q 139.9 67.632 141.973 62.652 A 35.085 35.085 0 0 1 142.1 62.35 A 35.111 35.111 0 0 1 145.883 55.593 A 31.53 31.53 0 0 1 147.7 53.3 Q 150.6 49.9 154.2 47.7 A 17.008 17.008 0 0 1 157.274 46.196 A 10.942 10.942 0 0 1 161 45.5 Q 163.2 45.5 164.8 46.7 A 4.362 4.362 0 0 1 166.5 50.326 A 6.708 6.708 0 0 1 166.5 50.4 Q 166.5 52.9 164.6 55.9 Q 162.7 58.9 159.2 61.5 A 16.728 16.728 0 0 1 157.013 62.836 A 26.138 26.138 0 0 1 155.4 63.6 Q 153.1 64.6 150.8 65.25 A 20.092 20.092 0 0 1 148.582 65.757 A 9.959 9.959 0 0 1 147 65.9 A 15.117 15.117 0 0 0 146.424 67.607 A 29.507 29.507 0 0 0 146.05 69.1 Q 145.6 71.1 145.6 73.2 A 9.946 9.946 0 0 0 146.569 77.638 A 8.938 8.938 0 0 0 146.6 77.7 A 3.555 3.555 0 0 0 149.652 79.669 A 6.487 6.487 0 0 0 150.3 79.7 Q 153.6 79.7 156.3 77.8 Q 159 75.9 161.1 73.05 A 39.786 39.786 0 0 0 164.466 67.663 A 35.079 35.079 0 0 0 164.65 67.3 Q 166.1 64.4 167 62.4 A 2.774 2.774 0 0 1 167.685 61.369 A 282.766 282.766 0 0 1 169.327 58.126 A 255.589 255.589 0 0 1 171.5 54 Q 172.885 51.508 173.958 50.046 A 12.307 12.307 0 0 1 174.85 48.95 A 4.654 4.654 0 0 1 178.216 47.506 A 7.022 7.022 0 0 1 178.5 47.5 Q 179.3 47.5 180.2 47.75 Q 181.1 48 182 48 A 3.153 3.153 0 0 0 182.876 47.908 A 1.104 1.104 0 0 0 182.9 47.9 A 5.593 5.593 0 0 0 181.843 48.728 Q 180.744 49.783 179.3 51.85 Q 177.1 55 174.8 59.1 Q 172.5 63.2 170.7 66.8 Q 172.6 64.5 174.65 62.2 Q 176.7 59.9 179.2 57.8 A 48.934 48.934 0 0 1 182.201 55.39 A 69.54 69.54 0 0 1 184.95 53.45 A 52.29 52.29 0 0 1 189.688 50.603 A 42.87 42.87 0 0 1 191.5 49.7 A 22.897 22.897 0 0 1 193.717 48.786 Q 194.804 48.411 195.681 48.276 A 6.071 6.071 0 0 1 196.6 48.2 A 4.389 4.389 0 0 1 197.474 48.266 A 1.217 1.217 0 0 1 197.6 48.3 L 196.5 50.25 Q 195.555 51.926 194.203 54.488 A 335.568 335.568 0 0 0 193.75 55.35 Q 192.1 58.5 190.4 62.05 Q 188.7 65.6 187.35 68.85 A 40.254 40.254 0 0 0 186.351 71.493 Q 185.924 72.768 185.695 73.825 A 14.566 14.566 0 0 0 185.6 74.3 Q 185.3 75.6 185.3 76.7 A 4.872 4.872 0 0 0 185.455 78.042 A 1.508 1.508 0 0 0 185.9 78.8 Q 186.5 79.3 187.2 79.3 A 4.461 4.461 0 0 0 189.464 78.615 A 9.211 9.211 0 0 0 191.2 77.25 A 26.592 26.592 0 0 0 193.892 74.151 A 35.885 35.885 0 0 0 195.25 72.2 A 88.876 88.876 0 0 0 198.357 67.065 A 76.673 76.673 0 0 0 198.75 66.35 A 154.527 154.527 0 0 0 199.793 64.403 A 77.014 77.014 0 0 0 199.917 64.167 A 43.146 43.146 0 0 1 202.25 59.3 A 43.821 43.821 0 0 1 204.491 55.679 A 32.195 32.195 0 0 1 206.3 53.3 Q 209.3 49.8 213.2 47.7 A 17.466 17.466 0 0 1 218.362 45.848 A 15.259 15.259 0 0 1 221.1 45.6 Q 224.7 45.6 227.9 47.5 Q 229.4 44.7 231.1 41.25 Q 232.8 37.8 234.5 34.4 A 217.892 217.892 0 0 0 236.469 30.365 A 162.611 162.611 0 0 0 237.5 28.15 Q 238.8 25.3 239.5 23.8 A 24.107 24.107 0 0 1 240.468 21.778 Q 240.956 20.883 241.426 20.276 A 4.467 4.467 0 0 1 242.35 19.35 Q 243.7 18.4 245.6 18.4 A 13.495 13.495 0 0 1 248.008 18.643 A 18.651 18.651 0 0 1 248.05 18.65 A 10.435 10.435 0 0 0 249.953 18.829 A 9.735 9.735 0 0 0 250.7 18.8 A 6.203 6.203 0 0 0 250.203 19.395 Q 249.567 20.231 248.417 21.995 A 124.102 124.102 0 0 0 248.25 22.25 Q 246.978 24.21 245.399 26.902 A 217.755 217.755 0 0 0 243.9 29.5 Q 241.4 33.9 238.55 39.15 Q 235.7 44.4 232.95 49.75 Q 230.2 55.1 227.85 59.85 Q 225.5 64.6 224.1 68 A 9.019 9.019 0 0 0 223.751 68.832 Q 223.419 69.719 222.95 71.25 A 18.728 18.728 0 0 0 222.344 73.801 A 10.969 10.969 0 0 0 222.2 75.5 Q 222.2 76.8 222.8 77.75 Q 223.4 78.7 224.8 78.7 A 4.499 4.499 0 0 0 227.251 77.902 A 8.589 8.589 0 0 0 228.65 76.75 A 24.88 24.88 0 0 0 231.145 73.803 A 33.701 33.701 0 0 0 232.4 71.95 A 70.457 70.457 0 0 0 235.424 66.694 A 61.733 61.733 0 0 0 235.6 66.35 A 137.851 137.851 0 0 0 236.691 64.164 Q 237.153 63.216 237.49 62.473 A 39.544 39.544 0 0 0 237.7 62 A 2.284 2.284 0 0 1 238.355 61.089 A 0.902 0.902 0 0 1 238.522 60.987 A 16.608 16.608 0 0 0 239 59.9 Q 240.5 56.8 242 53.95 Q 243.5 51.1 244.6 48.9 A 3.878 3.878 0 0 1 248.316 46.701 A 6.535 6.535 0 0 1 248.4 46.7 L 254.6 46.7 A 22.538 22.538 0 0 1 253.353 47.685 A 36.647 36.647 0 0 1 252.85 48.05 A 6.634 6.634 0 0 0 251.308 49.67 A 10.674 10.674 0 0 0 250.9 50.3 A 118.699 118.699 0 0 0 247.799 55.914 A 98.021 98.021 0 0 0 246.2 59.15 Q 244.2 63.4 241.9 68.2 A 27.56 27.56 0 0 0 240.715 71.047 A 18.571 18.571 0 0 0 240.3 72.4 A 15.645 15.645 0 0 0 239.854 74.728 A 9.342 9.342 0 0 0 239.8 75.7 A 6.227 6.227 0 0 0 239.994 77.369 A 1.955 1.955 0 0 0 242 79 A 4.12 4.12 0 0 0 243.854 78.497 Q 245.384 77.72 247.221 75.745 A 27.016 27.016 0 0 0 247.8 75.1 Q 250.6 71.8 253.45 67.25 Q 256.3 62.7 258.95 57.85 Q 261.6 53 263.6 48.9 A 3.892 3.892 0 0 1 267.157 46.709 A 6.736 6.736 0 0 1 267.5 46.7 L 273 46.7 Q 270.1 48.7 268.55 51.9 A 70.318 70.318 0 0 0 267.339 54.553 Q 266.288 56.975 265.1 60.1 Q 263 65.6 261.15 71.45 Q 259.3 77.3 257 83.2 Q 259.836 82.255 263.3 80.423 A 66.547 66.547 0 0 0 264.45 79.8 A 19.952 19.952 0 0 0 270.563 74.495 A 23.947 23.947 0 0 0 271.5 73.2 A 73.152 73.152 0 0 0 274.356 68.643 A 58.916 58.916 0 0 0 275.45 66.65 Q 277.1 63.5 277.8 62.1 A 1.701 1.701 0 0 1 278.45 61.221 A 0.878 0.878 0 0 1 278.9 61.1 A 0.711 0.711 0 0 1 279.6 61.972 A 2.262 2.262 0 0 1 279.6 62 Q 279.6 62.5 279.3 63.1 A 231.374 231.374 0 0 1 277.428 66.768 Q 276.493 68.558 275.641 70.096 A 111.084 111.084 0 0 1 274.65 71.85 A 33.974 33.974 0 0 1 271.787 76.079 A 27.273 27.273 0 0 1 270.15 77.95 Q 267.7 80.5 264.2 82.45 Q 261.529 83.939 257.751 85.456 A 96.613 96.613 0 0 1 255.3 86.4 A 137.31 137.31 0 0 1 252.046 91.912 A 164.655 164.655 0 0 1 249.85 95.35 Q 246.8 100 242.95 104.05 A 34.928 34.928 0 0 1 235.064 110.305 A 33.109 33.109 0 0 1 234.45 110.65 A 20.889 20.889 0 0 1 224.555 113.198 A 24.403 24.403 0 0 1 224.2 113.2 A 20.132 20.132 0 0 1 221.31 113.01 Q 219.89 112.803 218.799 112.371 A 6.293 6.293 0 0 1 216.8 111.15 Q 214.6 109.1 214.6 106.3 Q 214.6 104.8 215 103.7 A 26.408 26.408 0 0 1 215.636 102.137 A 52.567 52.567 0 0 1 216.2 100.9 Q 217.6 98 220.1 95.9 Q 222.6 93.8 225.5 92.5 Q 230.538 90.175 236.936 88.695 A 77.009 77.009 0 0 1 237.35 88.6 A 207.852 207.852 0 0 0 247.016 86.182 A 187.281 187.281 0 0 0 250.1 85.3 A 46.462 46.462 0 0 0 252.304 80.926 A 60.528 60.528 0 0 0 253.6 77.75 A 178.989 178.989 0 0 0 256.337 69.957 A 162.146 162.146 0 0 0 256.5 69.45 A 890.01 890.01 0 0 0 257.405 66.617 Q 257.753 65.521 258.051 64.567 A 369.828 369.828 0 0 0 258.6 62.8 A 146.961 146.961 0 0 1 257.332 65.072 Q 256.533 66.477 255.55 68.15 Q 253.7 71.3 251.4 74.3 A 27.567 27.567 0 0 1 247.913 78.096 A 22.826 22.826 0 0 1 246.45 79.3 A 9.913 9.913 0 0 1 243.04 81.019 A 8.253 8.253 0 0 1 240.9 81.3 A 7.516 7.516 0 0 1 239.087 81.042 A 13.472 13.472 0 0 1 238.25 80.8 Q 236.7 80.3 235.55 78.95 A 4.676 4.676 0 0 1 234.59 76.871 A 9.324 9.324 0 0 1 234.4 74.9 A 10.985 10.985 0 0 1 235.074 71.151 A 54.444 54.444 0 0 1 233.331 73.907 A 61.331 61.331 0 0 1 233.2 74.1 A 23.794 23.794 0 0 1 229.808 78.123 A 19.985 19.985 0 0 1 228.5 79.25 A 9.307 9.307 0 0 1 224.646 81.12 A 8.425 8.425 0 0 1 222.9 81.3 Q 220.2 81.3 218.4 78.6 A 8.048 8.048 0 0 1 217.667 77.008 A 13.773 13.773 0 0 1 217.5 76.5 Q 217.1 75.2 217.1 73.6 Q 217.1 72.7 217.2 71.75 Q 217.3 70.8 217.6 69.8 Q 216.2 72 214.35 74.65 Q 212.5 77.3 210.15 79.25 Q 207.8 81.2 204.9 81.2 Q 203.9 81.2 202.8 80.9 Q 200.1 80.1 198.95 78.1 A 8.854 8.854 0 0 1 197.855 74.487 A 12.44 12.44 0 0 1 197.8 73.3 A 18.564 18.564 0 0 1 197.908 71.429 A 57.42 57.42 0 0 1 195.9 74.55 A 25.947 25.947 0 0 1 192.675 78.418 A 21.303 21.303 0 0 1 191.3 79.65 A 8.876 8.876 0 0 1 187.76 81.48 A 7.851 7.851 0 0 1 185.9 81.7 A 6.868 6.868 0 0 1 182.882 80.945 A 10.532 10.532 0 0 1 181.75 80.3 A 4.449 4.449 0 0 1 179.935 77.725 Q 179.632 76.705 179.603 75.378 A 12.97 12.97 0 0 1 179.6 75.1 Q 179.6 74 179.8 72.75 A 16.837 16.837 0 0 1 180.38 70.371 A 23.38 23.38 0 0 1 180.5 70 A 67.637 67.637 0 0 1 181.869 66.832 A 86.751 86.751 0 0 1 182.4 65.7 A 36.681 36.681 0 0 1 183.322 63.918 Q 184.36 62.025 186 59.4 Q 186.7 58.3 186.85 57.7 Q 187 57.1 187 56.7 Q 187 55.5 185.9 55.5 Q 185.028 55.5 183.359 56.439 A 17.683 17.683 0 0 0 183.25 56.5 A 14.086 14.086 0 0 0 181.688 57.56 Q 180.911 58.158 180.016 58.961 A 45.179 45.179 0 0 0 178.9 60 A 41.028 41.028 0 0 0 177.069 61.887 Q 175.214 63.913 172.95 66.8 Q 169.5 71.2 165 79.8 Q 164.3 81.1 163.45 81.2 A 36.096 36.096 0 0 1 162.134 81.325 A 81.015 81.015 0 0 1 161.1 81.4 Q 160.1 81.5 159.2 81.55 Q 158.3 81.6 157.7 82.1 A 802.026 802.026 0 0 0 159.974 77.455 A 17.788 17.788 0 0 1 156.75 79.9 Q 153.7 81.7 149.5 81.7 Z M 53.5 93.8 Q 50.5 93.8 48.55 91.6 A 5.275 5.275 0 0 1 47.564 89.854 Q 46.803 87.72 46.959 84.063 A 33.548 33.548 0 0 1 47 83.3 A 34.674 34.674 0 0 1 47.394 79.925 Q 48.235 74.772 50.664 67.774 A 125.259 125.259 0 0 1 50.9 67.1 Q 54.123 57.983 59.127 45.898 A 693.909 693.909 0 0 1 60 43.8 Q 61.8 39.5 63.65 34.2 Q 65.5 28.9 66.8 23.55 A 50.881 50.881 0 0 0 67.689 19.07 Q 68.1 16.319 68.1 13.9 A 19.024 19.024 0 0 0 67.808 10.448 A 13.362 13.362 0 0 0 67.35 8.65 Q 66.6 6.4 64.7 5.3 Q 62.5 3.9 60 3.3 Q 57.5 2.7 54.7 2.7 A 30.293 30.293 0 0 0 48.031 3.471 Q 45.218 4.105 42.289 5.26 A 45.799 45.799 0 0 0 41.45 5.6 A 55.619 55.619 0 0 0 32.234 10.536 A 63.642 63.642 0 0 0 28.05 13.55 Q 21.6 18.6 16.55 25 A 53.777 53.777 0 0 0 11.905 31.889 A 46.225 46.225 0 0 0 8.9 38.3 A 56.423 56.423 0 0 0 7.401 42.993 A 43.402 43.402 0 0 0 6.7 46 A 40.091 40.091 0 0 0 6.134 49.829 A 28.142 28.142 0 0 0 6 52.5 A 24.306 24.306 0 0 0 6.313 56.515 Q 6.69 58.767 7.523 60.607 A 13.455 13.455 0 0 0 8.05 61.65 Q 10.1 65.3 13.45 67.05 Q 16.8 68.8 20.7 68.8 Q 24.4 68.8 27.7 67.5 A 18.687 18.687 0 0 0 33.982 63.553 A 22.92 22.92 0 0 0 35.4 62.1 Q 38.8 58.3 40.8 53.65 A 27.497 27.497 0 0 0 42.167 49.725 Q 42.8 47.294 42.8 45.1 A 10.314 10.314 0 0 0 42.219 41.548 A 8.111 8.111 0 0 0 41.05 39.4 A 5.57 5.57 0 0 0 37.934 37.41 A 10.259 10.259 0 0 0 35.3 37.1 L 34.15 37.1 Q 33.6 37.1 32.9 37.3 Q 32.5 37.4 32.2 37.4 L 31.7 37.4 A 1.524 1.524 0 0 1 30.966 37.27 A 0.301 0.301 0 0 1 30.8 37 A 0.807 0.807 0 0 1 31.218 36.416 Q 31.565 36.163 32.202 35.896 A 11.965 11.965 0 0 1 32.7 35.7 A 20.915 20.915 0 0 1 36.597 34.818 A 15.824 15.824 0 0 1 38.5 34.7 A 12.309 12.309 0 0 1 41.565 35.055 A 7.359 7.359 0 0 1 45.5 37.45 A 9.858 9.858 0 0 1 47.688 42.617 A 13.743 13.743 0 0 1 47.8 44.4 A 17.834 17.834 0 0 1 47.17 48.975 Q 46.65 50.936 45.701 53.018 A 31.399 31.399 0 0 1 45.5 53.45 A 30.017 30.017 0 0 1 42.011 59.051 A 38.154 38.154 0 0 1 38.75 62.7 A 31.44 31.44 0 0 1 33.032 67.144 A 39.683 39.683 0 0 1 27.6 69.9 Q 24 71.4 20.2 71.4 Q 15 71.4 10.4 68.7 A 20.398 20.398 0 0 1 3.749 62.361 A 24.462 24.462 0 0 1 2.9 61 A 21.015 21.015 0 0 1 0.443 54.238 A 27.554 27.554 0 0 1 0 49.2 Q 0 45.9 0.8 42.3 A 39.98 39.98 0 0 1 2.152 37.644 A 51.222 51.222 0 0 1 3.3 34.7 Q 6.6 27 12.3 20.65 Q 18 14.3 25.05 9.65 A 65.823 65.823 0 0 1 33.546 4.886 A 58.686 58.686 0 0 1 39.5 2.5 A 50.518 50.518 0 0 1 45.841 0.791 Q 49.832 0 53.6 0 A 28.854 28.854 0 0 1 59.724 0.628 A 24.145 24.145 0 0 1 64.3 2.1 A 17.967 17.967 0 0 1 67.928 4.171 A 12.755 12.755 0 0 1 71.75 8.65 A 20.084 20.084 0 0 1 73.797 15.932 A 24.554 24.554 0 0 1 73.9 18.2 Q 73.9 24 71.95 30.55 Q 70 37.1 67.2 43.4 A 388.246 388.246 0 0 0 62.796 53.917 A 427.567 427.567 0 0 0 61.1 58.2 Q 58.1 65.9 55.9 72.8 A 163.458 163.458 0 0 0 54.652 76.888 Q 53.501 80.856 52.885 83.876 A 54.627 54.627 0 0 0 52.8 84.3 Q 52.6 85.4 52.5 86.25 Q 52.4 87.1 52.4 87.7 A 6.801 6.801 0 0 0 52.59 89.422 Q 52.844 90.38 53.437 90.822 A 2.056 2.056 0 0 0 54.7 91.2 A 4.799 4.799 0 0 0 56.539 90.777 A 10.052 10.052 0 0 0 58 90 A 24.389 24.389 0 0 0 61.257 87.654 Q 63.363 85.875 65.5 83.4 Q 69.3 79 73.05 73.35 Q 76.8 67.7 80.3 61.75 Q 83.8 55.8 87 50.5 Q 90.2 45.2 92.8 41.5 Q 94.4 39.3 95.8 38.25 A 6.404 6.404 0 0 1 97.212 37.416 A 2.663 2.663 0 0 1 98.2 37.2 A 1.897 1.897 0 0 1 100.139 38.871 A 6.325 6.325 0 0 1 100.3 40.4 A 11.232 11.232 0 0 1 100.046 42.645 A 20.658 20.658 0 0 1 99.4 45 Q 98.1 48.8 95.9 53.65 Q 93.7 58.5 91.8 63.45 Q 89.9 68.4 89.3 72.7 Q 89.2 73.8 89.15 74.65 Q 89.1 75.5 89.1 76.4 Q 89.1 79.746 89.97 81.871 A 6.439 6.439 0 0 0 91.2 83.85 A 7.088 7.088 0 0 0 96.358 86.095 A 9.984 9.984 0 0 0 96.7 86.1 A 14.866 14.866 0 0 0 100.314 85.622 Q 101.98 85.204 103.801 84.42 A 31.619 31.619 0 0 0 105.55 83.6 A 47.92 47.92 0 0 0 110.979 80.372 A 60.92 60.92 0 0 0 115.5 76.95 Q 120.5 72.8 124.55 67.8 A 47.695 47.695 0 0 0 128.016 62.957 A 36.782 36.782 0 0 0 130.7 57.8 Q 133 52.3 134.2 47.1 A 50.211 50.211 0 0 0 135.091 42.2 A 36.25 36.25 0 0 0 135.4 37.6 A 26.394 26.394 0 0 0 135.054 33.205 Q 134.638 30.747 133.725 28.712 A 14.884 14.884 0 0 0 132.4 26.35 A 9.688 9.688 0 0 0 126.16 22.307 A 15.36 15.36 0 0 0 123 22 Q 122.5 22 121.9 22.05 Q 121.3 22.1 120.6 22.2 A 30.717 30.717 0 0 1 118.753 22.61 Q 117.946 22.759 117.391 22.791 A 4.983 4.983 0 0 1 117.1 22.8 A 2.575 2.575 0 0 1 116.167 22.668 A 0.497 0.497 0 0 1 115.8 22.2 A 1.175 1.175 0 0 1 116.254 21.392 Q 116.753 20.924 117.8 20.4 A 6.54 6.54 0 0 1 120.759 19.686 A 6.926 6.926 0 0 1 122 19.8 A 15.547 15.547 0 0 1 123.292 19.746 A 14.845 14.845 0 0 1 131.05 21.95 A 17.309 17.309 0 0 1 136.307 26.907 A 22.283 22.283 0 0 1 137.9 29.55 A 22.017 22.017 0 0 1 139.766 34.757 Q 140.294 37.07 140.442 39.697 A 37.313 37.313 0 0 1 140.5 41.8 Q 140.5 45.5 139.7 49.8 A 43.322 43.322 0 0 1 138.271 55.332 A 54.194 54.194 0 0 1 137 58.8 Q 134.5 65.1 130 70.5 Q 125.5 75.9 119.95 80 A 53.136 53.136 0 0 1 113.643 84.027 A 45.003 45.003 0 0 1 108.65 86.35 Q 103.305 88.442 98.607 88.589 A 22.585 22.585 0 0 1 97.9 88.6 A 15.151 15.151 0 0 1 93.114 87.871 A 12.971 12.971 0 0 1 88.35 85.05 A 10.487 10.487 0 0 1 85.787 81.281 Q 84.581 78.362 84.505 74.166 A 31.467 31.467 0 0 1 84.5 73.6 Q 84.5 70.3 85.1 66.9 A 58.076 58.076 0 0 1 85.883 63.145 A 40.527 40.527 0 0 1 86.5 60.9 A 118.568 118.568 0 0 1 85.071 63.19 Q 84.41 64.223 83.643 65.388 A 270.305 270.305 0 0 1 82 67.85 A 133.242 133.242 0 0 1 78.411 72.902 A 163.104 163.104 0 0 1 75.65 76.5 Q 72.1 81 68.3 84.95 Q 64.5 88.9 60.7 91.35 A 17.662 17.662 0 0 1 57.565 92.981 Q 55.466 93.8 53.5 93.8 Z M 436.7 79.1 A 6.889 6.889 0 0 0 439.591 78.409 Q 440.735 77.881 441.94 76.951 A 17.652 17.652 0 0 0 442.5 76.5 Q 441.7 75.3 441.3 74 Q 440.9 72.7 440.9 71.6 Q 440.9 69.8 441.75 68.5 A 2.923 2.923 0 0 1 444.344 67.201 A 4.926 4.926 0 0 1 444.4 67.2 Q 445.7 67.2 446.55 68.15 Q 447.4 69.1 447.4 70.3 Q 447.4 70.6 447.35 70.85 Q 447.3 71.1 447.2 71.4 A 31.093 31.093 0 0 0 449.431 67.882 A 41.117 41.117 0 0 0 450.4 66 A 52.237 52.237 0 0 0 451.921 62.405 Q 453.283 58.786 453.602 55.958 A 14.789 14.789 0 0 0 453.7 54.3 A 8.229 8.229 0 0 0 453.431 52.084 A 4.589 4.589 0 0 0 452.8 50.7 Q 451.9 49.4 450.1 49.4 Q 448 49.4 445.55 51.2 A 20.446 20.446 0 0 0 442.566 53.919 A 28.193 28.193 0 0 0 440.85 56 A 36.126 36.126 0 0 0 437.224 62.013 A 41.288 41.288 0 0 0 436.9 62.7 A 50.472 50.472 0 0 0 434.875 67.635 A 41.361 41.361 0 0 0 434.35 69.25 Q 433.4 72.4 433.4 74.7 Q 433.4 76.7 434.2 77.9 A 2.769 2.769 0 0 0 436.634 79.1 A 4.74 4.74 0 0 0 436.7 79.1 Z M 221.8 111.2 Q 225.1 111.2 228.6 109.2 Q 232.1 107.2 235.4 104.15 A 82.085 82.085 0 0 0 240.754 98.736 A 73.785 73.785 0 0 0 241.45 97.95 A 95.726 95.726 0 0 0 243.656 95.338 Q 244.702 94.048 245.53 92.915 A 43.605 43.605 0 0 0 245.9 92.4 A 16.138 16.138 0 0 0 246.779 90.999 A 27.631 27.631 0 0 0 247 90.6 Q 247.6 89.5 248.2 88.5 Q 243.3 89.8 237.45 91.35 Q 231.6 92.9 227.3 94.8 A 19.399 19.399 0 0 0 222.779 97.405 A 16.15 16.15 0 0 0 219.75 100.5 A 18.948 18.948 0 0 0 218.185 102.95 Q 217.481 104.284 217.196 105.497 A 6.988 6.988 0 0 0 217 107.1 Q 217 108.9 218.15 110.05 A 3.846 3.846 0 0 0 220.1 111.035 A 7.976 7.976 0 0 0 221.8 111.2 Z M 208.84 76.938 A 15.531 15.531 0 0 0 209.1 76.75 A 14.336 14.336 0 0 0 210.926 75.113 Q 211.81 74.187 212.743 72.968 A 37.706 37.706 0 0 0 213.6 71.8 Q 216.4 67.8 220 61.8 A 237.993 237.993 0 0 0 224.903 53.219 A 267.16 267.16 0 0 0 227.1 49.1 Q 225.8 47.9 224.1 47.9 A 7.613 7.613 0 0 0 221.284 48.491 Q 220.088 48.967 218.797 49.828 A 20.017 20.017 0 0 0 217.85 50.5 A 34.674 34.674 0 0 0 214.032 53.868 A 45.321 45.321 0 0 0 211.15 57.1 A 54.039 54.039 0 0 0 207.178 62.648 A 46.463 46.463 0 0 0 205.7 65.2 A 31.256 31.256 0 0 0 204.282 68.192 A 20.346 20.346 0 0 0 203.55 70.3 A 18.486 18.486 0 0 0 203.008 72.82 A 11.03 11.03 0 0 0 202.9 74.3 A 7.842 7.842 0 0 0 203.091 76.143 Q 203.334 77.137 203.886 77.673 A 2.357 2.357 0 0 0 205.6 78.3 Q 206.913 78.3 208.84 76.938 Z M 434.3 28.35 A 9.612 9.612 0 0 0 434.724 28.067 A 18.265 18.265 0 0 1 433.9 30.2 Q 431.9 34.9 428.95 40.15 Q 426 45.4 422.6 50.25 A 78.222 78.222 0 0 1 419.805 54.001 A 63.585 63.585 0 0 1 415.6 58.8 A 119.628 119.628 0 0 1 416.366 56.774 Q 417.294 54.378 418.6 51.25 A 215.45 215.45 0 0 1 419.607 48.881 A 248.07 248.07 0 0 1 422.8 41.8 A 266.031 266.031 0 0 1 424.233 38.796 A 226.122 226.122 0 0 1 427.35 32.6 A 78.856 78.856 0 0 1 428.386 30.684 A 54.252 54.252 0 0 1 428.69 30.144 A 16.139 16.139 0 0 0 429.512 30.054 A 11.786 11.786 0 0 0 434.3 28.35 Z M 147.7 64.1 A 7.248 7.248 0 0 0 148.952 63.965 Q 149.619 63.844 150.481 63.615 A 41.317 41.317 0 0 0 152.4 63.05 Q 155.7 62 158.4 59.7 A 17.847 17.847 0 0 0 161.704 55.873 A 15.249 15.249 0 0 0 162.4 54.65 A 16.265 16.265 0 0 0 163.357 52.407 Q 163.8 51.069 163.8 50 A 3.39 3.39 0 0 0 163.576 48.662 A 1.372 1.372 0 0 0 162.2 47.8 A 3.179 3.179 0 0 0 160.928 48.129 Q 160.269 48.426 159.459 48.992 A 16.765 16.765 0 0 0 158.9 49.4 Q 157.489 50.475 155.627 52.543 A 61.13 61.13 0 0 0 153.7 54.8 Q 151.8 57.2 150.1 60 A 202.21 202.21 0 0 0 148.966 61.889 Q 148.552 62.589 148.235 63.141 A 43.125 43.125 0 0 0 147.7 64.1 Z M 431.04 26.427 A 15.557 15.557 0 0 0 431.826 26.256 A 12.369 12.369 0 0 0 432.7 26 A 4.866 4.866 0 0 0 435.503 23.779 A 2.651 2.651 0 0 0 435.357 22.919 A 0.582 0.582 0 0 0 434.8 22.5 A 1.252 1.252 0 0 0 434.144 22.793 A 5.634 5.634 0 0 0 433.6 23.25 Q 432.8 24 431.5 25.8 A 32.267 32.267 0 0 0 431.04 26.427 Z" vector-effect="non-scaling-stroke"/></g></svg>